<svg xmlns="http://www.w3.org/2000/svg" width="56" height="55" viewBox="0 0 56 55"><g fill="none" fill-rule="evenodd" stroke="#FFF" transform="translate(1 1)"><path fill="#FFF" d="M29.6869,26.2387 C29.5327,26.2323 29.3746,26.2695 29.2294,26.3518 C29.0945,26.4276 28.9839,26.5407 28.9068,26.6744 L22.8399,37.3535 C22.6035,37.7698 22.7487,38.298 23.1651,38.5345 C23.2948,38.6077 23.4426,38.6476 23.5943,38.6476 L25.7866,38.6476 C26.266,38.6476 26.6528,39.0382 26.6528,39.5137 L26.6528,52.8722 L18.31,52.8722 C8.1976,52.8722 0,44.6746 0,34.5622 C0,24.4511 8.1976,16.2523 18.31,16.2523 L29.6869,16.2523 L29.6869,26.2387 Z"/><path d="M53.9574,3.25 L53.9574,49.6225 C53.9574,51.4191 52.504,52.8725 50.7074,52.8725 L32.7393,52.8725 L32.7393,39.514 C32.7393,39.0372 33.1274,38.6478 33.6054,38.6478 L35.7772,38.6478 C36.2566,38.6478 36.6434,38.2597 36.6434,37.7817 C36.6434,37.6326 36.6048,37.4823 36.529,37.3525 L30.4146,26.6734 C30.2603,26.4022 29.9815,26.2467 29.6885,26.2403 L29.6885,3.25 C29.6885,1.45601 31.1445,0 32.9385,0 L50.7074,0 C52.5027,0 53.9574,1.45601 53.9574,3.25 Z"/></g></svg>